<?xml version="1.0" encoding="utf-8"?>
<!-- Generator: Adobe Illustrator 25.1.0, SVG Export Plug-In . SVG Version: 6.00 Build 0)  -->
<svg version="1.1" id="Layer_1" xmlns="http://www.w3.org/2000/svg" xmlns:xlink="http://www.w3.org/1999/xlink" x="0px" y="0px"
	 viewBox="0 0 500 191.6" style="enable-background:new 0 0 500 191.6;" xml:space="preserve">
<style type="text/css">
	.st0{fill:#436FC5;stroke:#31538C;stroke-width:0.75;stroke-miterlimit:10;}
	.st1{display:none;}
	.st2{display:inline;fill:#FFFFFF;stroke:#FFFFFF;stroke-width:2;stroke-miterlimit:10;}
	.st3{fill:#FFFFFF;}
</style>
<image style="display:none;overflow:visible;" width="1280" height="720" xlink:href="Blue-Roof-Labs-Logo-White-Background-R.jpg"  transform="matrix(0.5361 0 0 0.5361 -93.1111 -90.5413)">
</image>
<rect width="500" height="191.6"/>
<rect x="118.9" y="-47.6" transform="matrix(0.5 0.866 -0.866 0.5 129.3448 -67.8272)" class="st0" width="9" height="251.4"/>
<rect x="353.9" y="-43.9" transform="matrix(-0.2627 0.9649 -0.9649 -0.2627 539.7635 -231.7637)" class="st0" width="9" height="268.4"/>
<g id="Text">
	<g class="st1">
		<path class="st2" d="M59,173.5c-0.6,0-1.2-0.2-1.6-0.5c-0.4-0.3-0.6-0.8-0.6-1.4v-35.1c0-0.6,0.2-1,0.5-1.4
			c0.4-0.4,0.8-0.5,1.4-0.5h12.1c2,0,3.8,0.4,5.4,1.3c1.6,0.9,2.9,2,3.9,3.5s1.4,3.2,1.4,5.1c0,1.8-0.5,3.4-1.4,4.8
			c-1,1.4-2.2,2.5-3.8,3.2c2.2,0.6,4,1.7,5.4,3.4c1.4,1.7,2,3.7,2,6.3c0,2.3-0.5,4.3-1.5,6c-1,1.7-2.5,3.1-4.3,4.1
			c-1.8,1-3.9,1.5-6.2,1.5H59z M60.7,150.8h10.2c2,0,3.6-0.6,4.9-1.7c1.3-1.1,2-2.7,2-4.8c0-2-0.6-3.5-2-4.5c-1.3-1-2.9-1.5-4.9-1.5
			H60.7V150.8z M60.7,169.8h11.1c1.6,0,3-0.3,4.2-1c1.2-0.6,2.2-1.5,2.9-2.7c0.7-1.2,1-2.5,1-4.1c0-1.5-0.4-2.8-1-3.9
			c-0.7-1.1-1.7-2-2.9-2.6c-1.2-0.6-2.7-0.9-4.2-0.9H60.7V169.8z"/>
		<path class="st2" d="M96.9,173.5c-1.3,0-2.5-0.4-3.6-1.1c-1.1-0.7-1.9-1.8-2.5-3.1c-0.6-1.3-0.9-2.8-0.9-4.5v-28.5
			c0-0.6,0.2-1,0.5-1.4c0.4-0.3,0.8-0.5,1.4-0.5c0.6,0,1,0.2,1.4,0.5c0.4,0.4,0.5,0.8,0.5,1.4v28.5c0,1.4,0.3,2.6,0.9,3.5
			c0.6,0.9,1.3,1.4,2.2,1.4h1.2c0.5,0,0.9,0.2,1.2,0.5c0.3,0.4,0.4,0.8,0.4,1.4c0,0.6-0.2,1-0.6,1.4c-0.4,0.4-1,0.5-1.6,0.5H96.9z"
			/>
		<path class="st2" d="M117,173.8c-2.4,0-4.5-0.5-6.4-1.5c-1.9-1-3.3-2.4-4.4-4.3c-1.1-1.9-1.6-4.2-1.6-7v-13c0-0.5,0.2-1,0.5-1.3
			c0.4-0.4,0.8-0.5,1.4-0.5c0.6,0,1,0.2,1.4,0.5c0.4,0.4,0.6,0.8,0.6,1.3v13c0,2.1,0.4,3.8,1.2,5.1c0.8,1.3,1.9,2.3,3.2,3
			s2.9,1,4.6,1c1.6,0,3.1-0.3,4.4-1c1.3-0.6,2.4-1.5,3.1-2.6c0.8-1.1,1.1-2.3,1.1-3.8h2.8c-0.1,2.1-0.7,4-1.7,5.6
			c-1,1.7-2.5,3-4.2,3.9C121.2,173.4,119.2,173.8,117,173.8z M128,173.5c-0.6,0-1-0.2-1.4-0.5c-0.4-0.3-0.5-0.8-0.5-1.4v-23.5
			c0-0.6,0.2-1,0.5-1.4c0.4-0.3,0.8-0.5,1.4-0.5c0.6,0,1,0.2,1.4,0.5c0.4,0.4,0.6,0.8,0.6,1.4v23.5c0,0.6-0.2,1.1-0.6,1.4
			C129.1,173.4,128.6,173.5,128,173.5z"/>
		<path class="st2" d="M151.4,173.8c-2.7,0-5.1-0.6-7.2-1.8c-2.1-1.2-3.7-2.8-4.9-4.9c-1.2-2.1-1.8-4.5-1.8-7.2
			c0-2.7,0.6-5.1,1.7-7.2c1.1-2.1,2.7-3.7,4.6-4.9c2-1.2,4.2-1.8,6.8-1.8c2.5,0,4.7,0.6,6.6,1.7c1.9,1.2,3.3,2.7,4.4,4.8
			c1,2,1.6,4.3,1.6,6.9c0,0.5-0.2,1-0.5,1.3c-0.3,0.3-0.8,0.5-1.3,0.5h-21.2v-3.2l19.5,0c-0.3-1.8-0.3-2.1-1-3.6
			c-0.7-1.5-1.8-2.7-3.1-3.6s-3-1.3-4.8-1.3c-1.9,0-3.6,0.5-5,1.4c-1.4,0.9-2.5,2.1-3.3,3.7c-0.8,1.6-1.2,3.4-1.2,5.4
			c0,2,0.4,3.8,1.3,5.4c0.9,1.6,2.1,2.8,3.6,3.7c1.5,0.9,3.3,1.3,5.3,1.3c1.2,0,2.4-0.2,3.6-0.6c1.2-0.4,2.2-0.9,2.9-1.6
			c0.4-0.3,0.8-0.5,1.2-0.5c0.5,0,0.9,0.1,1.2,0.4c0.4,0.4,0.7,0.8,0.7,1.3c0,0.5-0.2,0.9-0.6,1.2c-1.1,0.9-2.5,1.7-4.2,2.3
			C154.6,173.5,152.9,173.8,151.4,173.8z"/>
	</g>
	<g>
		<g class="st1">
			<path class="st2" d="M462.2,156.3c-1.9,0-3.6-0.3-5.2-1c-1.6-0.7-3-1.6-4.2-2.8c-1.2-1.2-2.2-2.6-2.8-4.2s-1-3.4-1-5.2
				c0-1.8,0.3-3.5,1-5.1c0.7-1.6,1.6-3,2.9-4.2c1.2-1.2,2.6-2.2,4.2-2.9s3.3-1,5.2-1c1.8,0,3.5,0.3,5.1,1c1.6,0.7,3,1.6,4.2,2.9
				c1.2,1.2,2.2,2.6,2.9,4.2s1.1,3.3,1.1,5.1c0,1.9-0.3,3.6-1,5.2c-0.7,1.6-1.6,3-2.9,4.2c-1.2,1.2-2.6,2.2-4.2,2.8
				C465.7,155.9,464,156.3,462.2,156.3z M462.1,154c1.5,0,3-0.3,4.3-0.9c1.3-0.6,2.5-1.4,3.5-2.4c1-1,1.8-2.2,2.4-3.5
				c0.6-1.3,0.9-2.7,0.9-4.3s-0.3-2.9-0.9-4.3s-1.4-2.5-2.4-3.5c-1-1-2.2-1.8-3.5-2.4c-1.3-0.6-2.8-0.9-4.3-0.9
				c-1.5,0-2.9,0.3-4.2,0.9c-1.3,0.6-2.5,1.4-3.5,2.4c-1,1-1.8,2.2-2.4,3.5c-0.6,1.3-0.9,2.8-0.9,4.3s0.3,2.9,0.9,4.3
				c0.6,1.3,1.4,2.5,2.4,3.5c1,1,2.2,1.8,3.5,2.4C459.2,153.7,460.6,154,462.1,154z M458.3,151c-0.3,0-0.6-0.1-0.8-0.3
				c-0.2-0.2-0.3-0.5-0.3-0.8v-14.4c0-0.3,0.1-0.6,0.3-0.8s0.5-0.3,0.8-0.3h3.8c1.1,0,2.1,0.2,2.9,0.7c0.9,0.4,1.5,1,2,1.8
				c0.5,0.8,0.7,1.7,0.7,2.7c0,1-0.3,1.9-0.8,2.7c-0.5,0.8-1.2,1.4-2.1,1.8c-0.9,0.4-1.8,0.7-2.8,0.7h-2.8v5.2
				c0,0.3-0.1,0.6-0.3,0.8S458.6,151,458.3,151z M459.4,142.6h2.8c1,0,1.8-0.3,2.4-0.8c0.6-0.5,0.9-1.3,0.9-2.3s-0.3-1.8-0.9-2.3
				c-0.6-0.5-1.4-0.8-2.4-0.8h-2.8V142.6z M467,151c-0.4,0-0.8-0.2-1-0.5l-4.1-6.7l2.2-0.6l3.8,6.1c0.3,0.5,0.3,0.9,0.2,1.2
				C467.8,150.8,467.5,151,467,151z"/>
		</g>
	</g>
	<g>
		<g class="st1">
			<path class="st2" d="M189.2,171.3c-0.6,0-1-0.2-1.4-0.5c-0.4-0.4-0.5-0.8-0.5-1.4v-35.1c0-0.6,0.2-1,0.5-1.4
				c0.4-0.4,0.8-0.5,1.4-0.5h9.3c2.4,0,4.6,0.5,6.5,1.5c1.9,1,3.4,2.4,4.5,4.2c1.1,1.8,1.6,3.9,1.6,6.3c0,2.3-0.5,4.3-1.6,6
				c-1.1,1.8-2.6,3.2-4.5,4.2c-1.9,1-4.1,1.5-6.5,1.5h-7.4v13.3c0,0.6-0.2,1-0.5,1.4C190.3,171.1,189.8,171.3,189.2,171.3z
				 M191.2,152.3h7.4c1.7,0,3.2-0.3,4.5-1c1.3-0.7,2.4-1.6,3.1-2.8c0.8-1.2,1.1-2.6,1.1-4.1c0-1.6-0.4-3.1-1.1-4.3
				c-0.8-1.2-1.8-2.2-3.1-2.9c-1.3-0.7-2.8-1-4.5-1h-7.4V152.3z M210.1,171.3c-0.4,0-0.8-0.1-1-0.2c-0.2-0.2-0.5-0.4-0.7-0.8
				l-9.6-15.3l3.9-1l8.9,14.3c0.5,0.8,0.6,1.5,0.3,2.1C211.7,171,211,171.3,210.1,171.3z"/>
			<path class="st2" d="M230.1,171.6c-2.7,0-5.1-0.6-7.2-1.8c-2.1-1.2-3.8-2.9-4.9-5c-1.2-2.1-1.8-4.5-1.8-7.2
				c0-2.7,0.6-5.1,1.8-7.2c1.2-2.1,2.9-3.8,4.9-5c2.1-1.2,4.5-1.8,7.2-1.8c2.7,0,5,0.6,7.1,1.8c2.1,1.2,3.7,2.8,4.9,5
				c1.2,2.1,1.8,4.5,1.9,7.2c0,2.7-0.6,5.1-1.8,7.2c-1.2,2.1-2.9,3.8-4.9,5C235.2,171,232.8,171.6,230.1,171.6z M230.1,168.1
				c1.9,0,3.7-0.5,5.2-1.3c1.5-0.9,2.7-2.1,3.6-3.7c0.9-1.6,1.3-3.4,1.3-5.4s-0.4-3.8-1.3-5.4c-0.9-1.6-2.1-2.8-3.6-3.7
				c-1.5-0.9-3.3-1.3-5.2-1.3c-1.9,0-3.7,0.4-5.2,1.3c-1.5,0.9-2.7,2.1-3.6,3.7c-0.9,1.6-1.3,3.4-1.3,5.4s0.4,3.8,1.3,5.4
				c0.9,1.6,2.1,2.8,3.6,3.7C226.5,167.6,228.2,168.1,230.1,168.1z"/>
			<path class="st2" d="M264,171.6c-2.7,0-5.1-0.6-7.2-1.8s-3.8-2.9-5-5s-1.8-4.5-1.8-7.2c0-2.7,0.6-5.1,1.8-7.2
				c1.2-2.1,2.9-3.8,5-5s4.5-1.8,7.2-1.8c2.7,0,5,0.6,7.1,1.8c2.1,1.2,3.7,2.8,4.9,5c1.2,2.1,1.8,4.5,1.8,7.2c0,2.7-0.6,5.1-1.8,7.2
				s-2.9,3.8-4.9,5C269,171,266.7,171.6,264,171.6z M264,168.1c1.9,0,3.7-0.5,5.2-1.3c1.5-0.9,2.7-2.1,3.6-3.7
				c0.9-1.6,1.3-3.4,1.3-5.4s-0.4-3.8-1.3-5.4c-0.9-1.6-2.1-2.8-3.6-3.7s-3.3-1.3-5.2-1.3c-1.9,0-3.7,0.4-5.2,1.3
				c-1.5,0.9-2.7,2.1-3.6,3.7c-0.9,1.6-1.3,3.4-1.3,5.4s0.4,3.8,1.3,5.4c0.9,1.6,2.1,2.8,3.6,3.7C260.3,167.6,262.1,168.1,264,168.1
				z"/>
			<path class="st2" d="M283.7,148.3c-0.5,0-1-0.2-1.3-0.5c-0.3-0.3-0.5-0.7-0.5-1.2c0-0.5,0.2-0.9,0.5-1.2c0.3-0.3,0.7-0.5,1.3-0.5
				h13c0.5,0,1,0.2,1.3,0.5c0.3,0.3,0.5,0.7,0.5,1.2c0,0.5-0.2,0.9-0.5,1.2c-0.3,0.3-0.7,0.5-1.3,0.5H283.7z M288.8,171.3
				c-0.5,0-0.9-0.2-1.3-0.5c-0.4-0.3-0.5-0.8-0.5-1.4V144c0-2.3,0.4-4.4,1.2-6.2c0.8-1.8,2-3.1,3.5-4.1c1.6-1,3.5-1.5,5.8-1.5
				c0.6,0,1,0.2,1.4,0.5c0.4,0.3,0.5,0.8,0.5,1.2s-0.2,0.9-0.5,1.2c-0.4,0.3-0.8,0.5-1.4,0.5c-1.5,0-2.7,0.3-3.7,1
				c-1,0.7-1.7,1.6-2.2,2.8c-0.5,1.2-0.7,2.6-0.7,4.2v25.5c0,0.6-0.2,1.1-0.5,1.4C289.9,171.2,289.4,171.3,288.8,171.3z"/>
		</g>
	</g>
	<g>
		<g class="st1">
			<path class="st2" d="M324.5,171.3c-0.5,0-1-0.2-1.4-0.5c-0.4-0.4-0.6-0.8-0.6-1.4v-35.1c0-0.5,0.2-1,0.6-1.4
				c0.4-0.4,0.8-0.6,1.4-0.6s1,0.2,1.4,0.6c0.4,0.4,0.6,0.8,0.6,1.4v33.4H346c0.5,0,1,0.2,1.4,0.5c0.4,0.3,0.6,0.8,0.6,1.3
				s-0.2,1-0.6,1.3c-0.4,0.4-0.8,0.5-1.4,0.5H324.5z"/>
			<path class="st2" d="M365.8,171.6c-2.6,0-4.9-0.6-6.9-1.8c-2-1.2-3.6-2.9-4.8-5c-1.2-2.1-1.8-4.5-1.8-7.1c0-2.7,0.6-5,1.8-7.1
				c1.2-2.1,2.9-3.8,5-5c2.1-1.2,4.5-1.8,7.1-1.8c2.6,0,5,0.6,7.1,1.8s3.7,2.9,5,5c1.2,2.1,1.8,4.5,1.9,7.1l-1.5,1.2
				c0,2.4-0.6,4.6-1.7,6.5c-1.1,1.9-2.6,3.4-4.5,4.5C370.4,171,368.2,171.6,365.8,171.6z M366.2,168.1c1.9,0,3.7-0.5,5.2-1.3
				c1.5-0.9,2.7-2.1,3.6-3.7c0.9-1.6,1.3-3.4,1.3-5.3c0-2-0.4-3.8-1.3-5.3c-0.9-1.6-2.1-2.8-3.6-3.7c-1.5-0.9-3.2-1.4-5.2-1.4
				c-1.9,0-3.6,0.5-5.2,1.4s-2.8,2.2-3.7,3.7c-0.9,1.6-1.3,3.3-1.3,5.3c0,2,0.5,3.7,1.3,5.3c0.9,1.6,2.1,2.8,3.7,3.7
				C362.5,167.6,364.3,168.1,366.2,168.1z M378.1,171.3c-0.6,0-1-0.2-1.4-0.5c-0.4-0.3-0.5-0.8-0.5-1.4v-8.5l0.9-4l3,0.8v11.8
				c0,0.6-0.2,1-0.5,1.4C379.1,171.2,378.7,171.3,378.1,171.3z"/>
			<path class="st2" d="M401.4,171.6c-2.6,0-4.9-0.6-7-1.8c-2.1-1.2-3.7-2.8-5-4.9s-1.8-4.4-1.9-7v-23.6c0-0.6,0.2-1.1,0.5-1.4
				c0.3-0.4,0.8-0.5,1.4-0.5c0.6,0,1,0.2,1.4,0.5c0.3,0.3,0.5,0.8,0.5,1.4v14.7c1.1-1.6,2.6-2.8,4.4-3.8c1.8-1,3.8-1.4,6.1-1.4
				c2.6,0,4.9,0.6,6.9,1.8s3.6,2.9,4.8,5c1.2,2.1,1.8,4.5,1.8,7.1c0,2.7-0.6,5-1.8,7.2c-1.2,2.1-2.9,3.8-5,5
				C406.5,171,404.1,171.6,401.4,171.6z M401.4,168.1c1.9,0,3.7-0.5,5.2-1.4c1.5-0.9,2.7-2.2,3.6-3.7s1.3-3.4,1.3-5.4
				c0-2-0.4-3.7-1.3-5.3c-0.9-1.6-2.1-2.8-3.6-3.7s-3.3-1.3-5.2-1.3c-1.9,0-3.6,0.4-5.2,1.3s-2.7,2.1-3.6,3.7
				c-0.9,1.6-1.3,3.4-1.3,5.3c0,2,0.4,3.8,1.3,5.4c0.9,1.6,2.1,2.8,3.6,3.7C397.8,167.6,399.5,168.1,401.4,168.1z"/>
			<path class="st2" d="M432.5,171.6c-2,0-3.9-0.3-5.8-1c-1.9-0.7-3.5-1.7-4.7-3c-0.4-0.4-0.5-0.8-0.5-1.3c0.1-0.5,0.3-0.9,0.8-1.3
				c0.5-0.3,1-0.5,1.5-0.4c0.5,0.1,0.9,0.3,1.2,0.6c0.8,0.9,1.9,1.7,3.2,2.2c1.3,0.5,2.8,0.8,4.4,0.8c2.5,0,4.2-0.4,5.3-1.3
				c1.1-0.8,1.7-1.9,1.7-3.1c0-1.2-0.6-2.2-1.7-3c-1.1-0.8-3-1.4-5.6-1.8c-3.4-0.5-5.8-1.5-7.4-2.8c-1.6-1.3-2.3-2.9-2.3-4.8
				c0-1.7,0.5-3.1,1.3-4.2c0.9-1.1,2.1-2,3.6-2.5c1.5-0.6,3.1-0.8,5-0.8c2.2,0,4.2,0.4,5.8,1.1c1.6,0.8,2.9,1.8,3.9,3.1
				c0.3,0.4,0.5,0.9,0.4,1.3c-0.1,0.5-0.3,0.8-0.8,1.2c-0.4,0.2-0.9,0.3-1.4,0.2c-0.5-0.1-1-0.3-1.3-0.7c-0.8-1-1.8-1.7-2.9-2.1
				c-1.1-0.5-2.4-0.7-3.8-0.7c-1.8,0-3.3,0.4-4.4,1.1c-1.1,0.8-1.7,1.7-1.7,2.8c0,0.8,0.2,1.4,0.6,2c0.4,0.6,1.1,1.1,2.2,1.5
				c1,0.4,2.4,0.8,4.3,1.1c2.5,0.4,4.5,1,5.9,1.8c1.5,0.8,2.5,1.7,3.1,2.8c0.6,1,0.9,2.2,0.9,3.4c0,1.6-0.5,2.9-1.4,4.1
				c-0.9,1.2-2.2,2.1-3.8,2.8C436.4,171.2,434.6,171.6,432.5,171.6z"/>
		</g>
	</g>
	<g>
		<g>
			<path class="st3" d="M59,173.5c-0.6,0-1.2-0.2-1.6-0.5c-0.4-0.3-0.6-0.8-0.6-1.4v-35.1c0-0.6,0.2-1,0.5-1.4
				c0.4-0.4,0.8-0.5,1.4-0.5h12.1c2,0,3.8,0.4,5.4,1.3c1.6,0.9,2.9,2,3.9,3.5s1.4,3.2,1.4,5.1c0,1.8-0.5,3.4-1.4,4.8
				c-1,1.4-2.2,2.5-3.8,3.2c2.2,0.6,4,1.7,5.4,3.4c1.4,1.7,2,3.7,2,6.3c0,2.3-0.5,4.3-1.5,6c-1,1.7-2.5,3.1-4.3,4.1
				c-1.8,1-3.9,1.5-6.2,1.5H59z M60.7,150.8h10.2c2,0,3.6-0.6,4.9-1.7c1.3-1.1,2-2.7,2-4.8c0-2-0.6-3.5-2-4.5
				c-1.3-1-2.9-1.5-4.9-1.5H60.7V150.8z M60.7,169.8h11.1c1.6,0,3-0.3,4.2-1c1.2-0.6,2.2-1.5,2.9-2.7c0.7-1.2,1-2.5,1-4.1
				c0-1.5-0.4-2.8-1-3.9c-0.7-1.1-1.7-2-2.9-2.6c-1.2-0.6-2.7-0.9-4.2-0.9H60.7V169.8z"/>
			<path class="st3" d="M96.9,173.5c-1.3,0-2.5-0.4-3.6-1.1c-1.1-0.7-1.9-1.8-2.5-3.1c-0.6-1.3-0.9-2.8-0.9-4.5v-28.5
				c0-0.6,0.2-1,0.5-1.4c0.4-0.3,0.8-0.5,1.4-0.5c0.6,0,1,0.2,1.4,0.5c0.4,0.4,0.5,0.8,0.5,1.4v28.5c0,1.4,0.3,2.6,0.9,3.5
				c0.6,0.9,1.3,1.4,2.2,1.4h1.2c0.5,0,0.9,0.2,1.2,0.5c0.3,0.4,0.4,0.8,0.4,1.4c0,0.6-0.2,1-0.6,1.4c-0.4,0.4-1,0.5-1.6,0.5H96.9z"
				/>
			<path class="st3" d="M117,173.8c-2.4,0-4.5-0.5-6.4-1.5c-1.9-1-3.3-2.4-4.4-4.3c-1.1-1.9-1.6-4.2-1.6-7v-13c0-0.5,0.2-1,0.5-1.3
				c0.4-0.4,0.8-0.5,1.4-0.5c0.6,0,1,0.2,1.4,0.5c0.4,0.4,0.6,0.8,0.6,1.3v13c0,2.1,0.4,3.8,1.2,5.1c0.8,1.3,1.9,2.3,3.2,3
				s2.9,1,4.6,1c1.6,0,3.1-0.3,4.4-1c1.3-0.6,2.4-1.5,3.1-2.6c0.8-1.1,1.1-2.3,1.1-3.8h2.8c-0.1,2.1-0.7,4-1.7,5.6
				c-1,1.7-2.5,3-4.2,3.9C121.2,173.4,119.2,173.8,117,173.8z M128,173.5c-0.6,0-1-0.2-1.4-0.5c-0.4-0.3-0.5-0.8-0.5-1.4v-23.5
				c0-0.6,0.2-1,0.5-1.4c0.4-0.3,0.8-0.5,1.4-0.5c0.6,0,1,0.2,1.4,0.5c0.4,0.4,0.6,0.8,0.6,1.4v23.5c0,0.6-0.2,1.1-0.6,1.4
				C129.1,173.4,128.6,173.5,128,173.5z"/>
			<path class="st3" d="M151.4,173.8c-2.7,0-5.1-0.6-7.2-1.8c-2.1-1.2-3.7-2.8-4.9-4.9c-1.2-2.1-1.8-4.5-1.8-7.2
				c0-2.7,0.6-5.1,1.7-7.2c1.1-2.1,2.7-3.7,4.6-4.9c2-1.2,4.2-1.8,6.8-1.8c2.5,0,4.7,0.6,6.6,1.7c1.9,1.2,3.3,2.7,4.4,4.8
				c1,2,1.6,4.3,1.6,6.9c0,0.5-0.2,1-0.5,1.3c-0.3,0.3-0.8,0.5-1.3,0.5h-21.2v-3.2h21.6l-2.1,1.5c0-1.9-0.3-3.7-1-5.2
				c-0.7-1.5-1.8-2.7-3.1-3.6s-3-1.3-4.8-1.3c-1.9,0-3.6,0.5-5,1.4c-1.4,0.9-2.5,2.1-3.3,3.7c-0.8,1.6-1.2,3.4-1.2,5.4
				c0,2,0.4,3.8,1.3,5.4c0.9,1.6,2.1,2.8,3.6,3.7c1.5,0.9,3.3,1.3,5.3,1.3c1.2,0,2.4-0.2,3.6-0.6c1.2-0.4,2.2-0.9,2.9-1.6
				c0.4-0.3,0.8-0.5,1.2-0.5c0.5,0,0.9,0.1,1.2,0.4c0.4,0.4,0.7,0.8,0.7,1.3c0,0.5-0.2,0.9-0.6,1.2c-1.1,0.9-2.5,1.7-4.2,2.3
				C154.6,173.5,152.9,173.8,151.4,173.8z"/>
		</g>
	</g>
	<g>
		<g>
			<path class="st3" d="M462.2,156.3c-1.9,0-3.6-0.3-5.2-1c-1.6-0.7-3-1.6-4.2-2.8c-1.2-1.2-2.2-2.6-2.8-4.2s-1-3.4-1-5.2
				c0-1.8,0.3-3.5,1-5.1c0.7-1.6,1.6-3,2.9-4.2c1.2-1.2,2.6-2.2,4.2-2.9s3.3-1,5.2-1c1.8,0,3.5,0.3,5.1,1c1.6,0.7,3,1.6,4.2,2.9
				c1.2,1.2,2.2,2.6,2.9,4.2s1.1,3.3,1.1,5.1c0,1.9-0.3,3.6-1,5.2c-0.7,1.6-1.6,3-2.9,4.2c-1.2,1.2-2.6,2.2-4.2,2.8
				C465.7,155.9,464,156.3,462.2,156.3z M462.1,154c1.5,0,3-0.3,4.3-0.9c1.3-0.6,2.5-1.4,3.5-2.4c1-1,1.8-2.2,2.4-3.5
				c0.6-1.3,0.9-2.7,0.9-4.3s-0.3-2.9-0.9-4.3s-1.4-2.5-2.4-3.5c-1-1-2.2-1.8-3.5-2.4c-1.3-0.6-2.8-0.9-4.3-0.9
				c-1.5,0-2.9,0.3-4.2,0.9c-1.3,0.6-2.5,1.4-3.5,2.4c-1,1-1.8,2.2-2.4,3.5c-0.6,1.3-0.9,2.8-0.9,4.3s0.3,2.9,0.9,4.3
				c0.6,1.3,1.4,2.5,2.4,3.5c1,1,2.2,1.8,3.5,2.4C459.2,153.7,460.6,154,462.1,154z M458.3,151c-0.3,0-0.6-0.1-0.8-0.3
				c-0.2-0.2-0.3-0.5-0.3-0.8v-14.4c0-0.3,0.1-0.6,0.3-0.8s0.5-0.3,0.8-0.3h3.8c1.1,0,2.1,0.2,2.9,0.7c0.9,0.4,1.5,1,2,1.8
				c0.5,0.8,0.7,1.7,0.7,2.7c0,1-0.3,1.9-0.8,2.7c-0.5,0.8-1.2,1.4-2.1,1.8c-0.9,0.4-1.8,0.7-2.8,0.7h-2.8v5.2
				c0,0.3-0.1,0.6-0.3,0.8S458.6,151,458.3,151z M459.4,142.6h2.8c1,0,1.8-0.3,2.4-0.8c0.6-0.5,0.9-1.3,0.9-2.3s-0.3-1.8-0.9-2.3
				c-0.6-0.5-1.4-0.8-2.4-0.8h-2.8V142.6z M467,151c-0.4,0-0.8-0.2-1-0.5l-4.1-6.7l2.2-0.6l3.8,6.1c0.3,0.5,0.3,0.9,0.2,1.2
				C467.8,150.8,467.5,151,467,151z"/>
		</g>
	</g>
	<g>
		<g>
			<path class="st3" d="M189.2,171.3c-0.6,0-1-0.2-1.4-0.5c-0.4-0.4-0.5-0.8-0.5-1.4v-35.1c0-0.6,0.2-1,0.5-1.4
				c0.4-0.4,0.8-0.5,1.4-0.5h9.3c2.4,0,4.6,0.5,6.5,1.5c1.9,1,3.4,2.4,4.5,4.2c1.1,1.8,1.6,3.9,1.6,6.3c0,2.3-0.5,4.3-1.6,6
				c-1.1,1.8-2.6,3.2-4.5,4.2c-1.9,1-4.1,1.5-6.5,1.5h-7.4v13.3c0,0.6-0.2,1-0.5,1.4C190.3,171.1,189.8,171.3,189.2,171.3z
				 M191.2,152.3h7.4c1.7,0,3.2-0.3,4.5-1c1.3-0.7,2.4-1.6,3.1-2.8c0.8-1.2,1.1-2.6,1.1-4.1c0-1.6-0.4-3.1-1.1-4.3
				c-0.8-1.2-1.8-2.2-3.1-2.9c-1.3-0.7-2.8-1-4.5-1h-7.4V152.3z M210.1,171.3c-0.4,0-0.8-0.1-1-0.2c-0.2-0.2-0.5-0.4-0.7-0.8
				l-9.6-15.3l3.9-1l8.9,14.3c0.5,0.8,0.6,1.5,0.3,2.1C211.7,171,211,171.3,210.1,171.3z"/>
			<path class="st3" d="M230.1,171.6c-2.7,0-5.1-0.6-7.2-1.8c-2.1-1.2-3.8-2.9-4.9-5c-1.2-2.1-1.8-4.5-1.8-7.2
				c0-2.7,0.6-5.1,1.8-7.2c1.2-2.1,2.9-3.8,4.9-5c2.1-1.2,4.5-1.8,7.2-1.8c2.7,0,5,0.6,7.1,1.8c2.1,1.2,3.7,2.8,4.9,5
				c1.2,2.1,1.8,4.5,1.9,7.2c0,2.7-0.6,5.1-1.8,7.2c-1.2,2.1-2.9,3.8-4.9,5C235.2,171,232.8,171.6,230.1,171.6z M230.1,168.1
				c1.9,0,3.7-0.5,5.2-1.3c1.5-0.9,2.7-2.1,3.6-3.7c0.9-1.6,1.3-3.4,1.3-5.4s-0.4-3.8-1.3-5.4c-0.9-1.6-2.1-2.8-3.6-3.7
				c-1.5-0.9-3.3-1.3-5.2-1.3c-1.9,0-3.7,0.4-5.2,1.3c-1.5,0.9-2.7,2.1-3.6,3.7c-0.9,1.6-1.3,3.4-1.3,5.4s0.4,3.8,1.3,5.4
				c0.9,1.6,2.1,2.8,3.6,3.7C226.5,167.6,228.2,168.1,230.1,168.1z"/>
			<path class="st3" d="M264,171.6c-2.7,0-5.1-0.6-7.2-1.8s-3.8-2.9-5-5s-1.8-4.5-1.8-7.2c0-2.7,0.6-5.1,1.8-7.2
				c1.2-2.1,2.9-3.8,5-5s4.5-1.8,7.2-1.8c2.7,0,5,0.6,7.1,1.8c2.1,1.2,3.7,2.8,4.9,5c1.2,2.1,1.8,4.5,1.8,7.2c0,2.7-0.6,5.1-1.8,7.2
				s-2.9,3.8-4.9,5C269,171,266.7,171.6,264,171.6z M264,168.1c1.9,0,3.7-0.5,5.2-1.3c1.5-0.9,2.7-2.1,3.6-3.7
				c0.9-1.6,1.3-3.4,1.3-5.4s-0.4-3.8-1.3-5.4c-0.9-1.6-2.1-2.8-3.6-3.7s-3.3-1.3-5.2-1.3c-1.9,0-3.7,0.4-5.2,1.3
				c-1.5,0.9-2.7,2.1-3.6,3.7c-0.9,1.6-1.3,3.4-1.3,5.4s0.4,3.8,1.3,5.4c0.9,1.6,2.1,2.8,3.6,3.7C260.3,167.6,262.1,168.1,264,168.1
				z"/>
			<path class="st3" d="M283.7,148.3c-0.5,0-1-0.2-1.3-0.5c-0.3-0.3-0.5-0.7-0.5-1.2c0-0.5,0.2-0.9,0.5-1.2c0.3-0.3,0.7-0.5,1.3-0.5
				h13c0.5,0,1,0.2,1.3,0.5c0.3,0.3,0.5,0.7,0.5,1.2c0,0.5-0.2,0.9-0.5,1.2c-0.3,0.3-0.7,0.5-1.3,0.5H283.7z M288.8,171.3
				c-0.5,0-0.9-0.2-1.3-0.5c-0.4-0.3-0.5-0.8-0.5-1.4V144c0-2.3,0.4-4.4,1.2-6.2c0.8-1.8,2-3.1,3.5-4.1c1.6-1,3.5-1.5,5.8-1.5
				c0.6,0,1,0.2,1.4,0.5c0.4,0.3,0.5,0.8,0.5,1.2s-0.2,0.9-0.5,1.2c-0.4,0.3-0.8,0.5-1.4,0.5c-1.5,0-2.7,0.3-3.7,1
				c-1,0.7-1.7,1.6-2.2,2.8c-0.5,1.2-0.7,2.6-0.7,4.2v25.5c0,0.6-0.2,1.1-0.5,1.4C289.9,171.2,289.4,171.3,288.8,171.3z"/>
		</g>
	</g>
	<g>
		<g>
			<path class="st3" d="M324.5,171.3c-0.5,0-1-0.2-1.4-0.5c-0.4-0.4-0.6-0.8-0.6-1.4v-35.1c0-0.5,0.2-1,0.6-1.4
				c0.4-0.4,0.8-0.6,1.4-0.6s1,0.2,1.4,0.6c0.4,0.4,0.6,0.8,0.6,1.4v33.4H346c0.5,0,1,0.2,1.4,0.5c0.4,0.3,0.6,0.8,0.6,1.3
				s-0.2,1-0.6,1.3c-0.4,0.4-0.8,0.5-1.4,0.5H324.5z"/>
			<path class="st3" d="M365.8,171.6c-2.6,0-4.9-0.6-6.9-1.8c-2-1.2-3.6-2.9-4.8-5c-1.2-2.1-1.8-4.5-1.8-7.1c0-2.7,0.6-5,1.8-7.1
				c1.2-2.1,2.9-3.8,5-5c2.1-1.2,4.5-1.8,7.1-1.8c2.6,0,5,0.6,7.1,1.8s3.7,2.9,5,5c1.2,2.1,1.8,4.5,1.9,7.1l-1.5,1.2
				c0,2.4-0.6,4.6-1.7,6.5c-1.1,1.9-2.6,3.4-4.5,4.5C370.4,171,368.2,171.6,365.8,171.6z M366.2,168.1c1.9,0,3.7-0.5,5.2-1.3
				c1.5-0.9,2.7-2.1,3.6-3.7c0.9-1.6,1.3-3.4,1.3-5.3c0-2-0.4-3.8-1.3-5.3c-0.9-1.6-2.1-2.8-3.6-3.7c-1.5-0.9-3.2-1.4-5.2-1.4
				c-1.9,0-3.6,0.5-5.2,1.4s-2.8,2.2-3.7,3.7c-0.9,1.6-1.3,3.3-1.3,5.3c0,2,0.5,3.7,1.3,5.3c0.9,1.6,2.1,2.8,3.7,3.7
				C362.5,167.6,364.3,168.1,366.2,168.1z M378.1,171.3c-0.6,0-1-0.2-1.4-0.5c-0.4-0.3-0.5-0.8-0.5-1.4v-8.5l0.9-4l3,0.8v11.8
				c0,0.6-0.2,1-0.5,1.4C379.1,171.2,378.7,171.3,378.1,171.3z"/>
			<path class="st3" d="M401.4,171.6c-2.6,0-4.9-0.6-7-1.8c-2.1-1.2-3.7-2.8-5-4.9s-1.8-4.4-1.9-7v-23.6c0-0.6,0.2-1.1,0.5-1.4
				c0.3-0.4,0.8-0.5,1.4-0.5c0.6,0,1,0.2,1.4,0.5c0.3,0.3,0.5,0.8,0.5,1.4v14.7c1.1-1.6,2.6-2.8,4.4-3.8c1.8-1,3.8-1.4,6.1-1.4
				c2.6,0,4.9,0.6,6.9,1.8s3.6,2.9,4.8,5c1.2,2.1,1.8,4.5,1.8,7.1c0,2.7-0.6,5-1.8,7.2c-1.2,2.1-2.9,3.8-5,5
				C406.5,171,404.1,171.6,401.4,171.6z M401.4,168.1c1.9,0,3.7-0.5,5.2-1.4c1.5-0.9,2.7-2.2,3.6-3.7s1.3-3.4,1.3-5.4
				c0-2-0.4-3.7-1.3-5.3c-0.9-1.6-2.1-2.8-3.6-3.7s-3.3-1.3-5.2-1.3c-1.9,0-3.6,0.4-5.2,1.3s-2.7,2.1-3.6,3.7
				c-0.9,1.6-1.3,3.4-1.3,5.3c0,2,0.4,3.8,1.3,5.4c0.9,1.6,2.1,2.8,3.6,3.7C397.8,167.6,399.5,168.1,401.4,168.1z"/>
			<path class="st3" d="M432.5,171.6c-2,0-3.9-0.3-5.8-1c-1.9-0.7-3.5-1.7-4.7-3c-0.4-0.4-0.5-0.8-0.5-1.3c0.1-0.5,0.3-0.9,0.8-1.3
				c0.5-0.3,1-0.5,1.5-0.4c0.5,0.1,0.9,0.3,1.2,0.6c0.8,0.9,1.9,1.7,3.2,2.2c1.3,0.5,2.8,0.8,4.4,0.8c2.5,0,4.2-0.4,5.3-1.3
				c1.1-0.8,1.7-1.9,1.7-3.1c0-1.2-0.6-2.2-1.7-3c-1.1-0.8-3-1.4-5.6-1.8c-3.4-0.5-5.8-1.5-7.4-2.8c-1.6-1.3-2.3-2.9-2.3-4.8
				c0-1.7,0.5-3.1,1.3-4.2c0.9-1.1,2.1-2,3.6-2.5c1.5-0.6,3.1-0.8,5-0.8c2.2,0,4.2,0.4,5.8,1.1c1.6,0.8,2.9,1.8,3.9,3.1
				c0.3,0.4,0.5,0.9,0.4,1.3c-0.1,0.5-0.3,0.8-0.8,1.2c-0.4,0.2-0.9,0.3-1.4,0.2c-0.5-0.1-1-0.3-1.3-0.7c-0.8-1-1.8-1.7-2.9-2.1
				c-1.1-0.5-2.4-0.7-3.8-0.7c-1.8,0-3.3,0.4-4.4,1.1c-1.1,0.8-1.7,1.7-1.7,2.8c0,0.8,0.2,1.4,0.6,2c0.4,0.6,1.1,1.1,2.2,1.5
				c1,0.4,2.4,0.8,4.3,1.1c2.5,0.4,4.5,1,5.9,1.8c1.5,0.8,2.5,1.7,3.1,2.8c0.6,1,0.9,2.2,0.9,3.4c0,1.6-0.5,2.9-1.4,4.1
				c-0.9,1.2-2.2,2.1-3.8,2.8C436.4,171.2,434.6,171.6,432.5,171.6z"/>
		</g>
	</g>
</g>
</svg>
