<svg
   width="289.45944mm"
   height="174.62498mm"
   viewBox="0 0 289.45944 174.62498"
   version="1.1"
   id="svg5"
   xmlns="http://www.w3.org/2000/svg"
   ><defs
     id="defs2" /><g
     id="layer1"
     transform="translate(294.70889,467.04697)"><g
       style="fill:none"
       id="g521"
       transform="matrix(0.26458333,0,0,0.26458333,-294.70889,-467.04697)"><g
         opacity="0.5"
         id="g478"><path
           d="M 1094.02,17.3496 C 1094.02,7.76769 1088.14,0 1080.89,0 H 734.064 383.577 13.1286 C 5.87787,0 0,7.76769 0,17.3496 V 642.65 C 0,652.232 5.87787,660 13.1286,660 H 383.577 761.368 1080.89 c 7.25,0 13.13,-7.768 13.13,-17.35 z"
           fill="#e1955e"
           id="path476" /></g><rect
         x="30.0816"
         y="53.159199"
         width="1032.27"
         height="33.7355"
         rx="16.5"
         fill="#ea7f3a"
         fill-opacity="0.16"
         id="rect480" /><rect
         x="30.0816"
         y="106.318"
         width="1032.27"
         height="33.7355"
         rx="16.5"
         fill="#ea7f3a"
         fill-opacity="0.16"
         id="rect482" /><rect
         x="29.291"
         y="159.47701"
         width="1032.27"
         height="33.7355"
         rx="16.5"
         fill="#ea7f3a"
         fill-opacity="0.16"
         id="rect484" /><rect
         x="29.291"
         y="212.636"
         width="1032.27"
         height="33.7355"
         rx="16.5"
         fill="#ea7f3a"
         fill-opacity="0.16"
         id="rect486" /><rect
         x="29.291"
         y="265.79501"
         width="1032.27"
         height="33.7355"
         rx="16.5"
         fill="#ea7f3a"
         fill-opacity="0.16"
         id="rect488" /><rect
         x="29.291"
         y="318.95401"
         width="1032.27"
         height="33.7355"
         rx="16.5"
         fill="#ea7f3a"
         fill-opacity="0.16"
         id="rect490" /><rect
         x="30.0816"
         y="373.13501"
         width="1032.27"
         height="33.7355"
         rx="16.5"
         fill="#ea7f3a"
         fill-opacity="0.16"
         id="rect492" /><rect
         x="30.0816"
         y="426.29401"
         width="1032.27"
         height="33.7355"
         rx="16.5"
         fill="#ea7f3a"
         fill-opacity="0.16"
         id="rect494" /><rect
         x="29.291"
         y="479.453"
         width="940.44501"
         height="33.7355"
         rx="16.5"
         fill="#ea7f3a"
         fill-opacity="0.16"
         id="rect496" /><rect
         x="29.291"
         y="532.612"
         width="932.52899"
         height="33.7355"
         rx="16.5"
         fill="#ea7f3a"
         fill-opacity="0.16"
         id="rect498" /><rect
         x="29.291"
         y="585.771"
         width="901.65601"
         height="33.7355"
         rx="16.5"
         fill="#ea7f3a"
         fill-opacity="0.16"
         id="rect500" /></g><g
       style="fill:none"
       id="g559"
       transform="matrix(0.26458333,0,0,0.26458333,-78.04649,-321.49933)"><g
         id="Wheel Barrow"><path
           id="Vector"
           d="M 2.16479,40.8677 35.4151,62.9027 48.3473,55.7158 V 12.126 Z"
           fill="#ea7f3a" /><path
           id="Vector_2"
           d="m 78.5078,45.0132 -1.6444,24.8262 2.7445,0.2004 1.6444,-24.8261 z"
           fill="#bababa" /><path
           id="Vector_3"
           d="m 56.0665,68.2809 23.6413,1.7254 0.1911,-2.882 -23.6414,-1.7254 z"
           fill="#bababa" /><path
           id="Vector_4"
           d="M 48.3468,12.126 83.7052,34.9116 48.3468,55.3241 Z"
           fill="#ce7033" /><path
           id="Vector_5"
           d="M 2.16479,40.167 11.5847,57.9188 46.9041,81.0915 36.5431,62.8486 Z"
           fill="#c7692c" /><path
           id="Vector_6"
           d="m 83.7051,34.8623 v 21.9 L 46.2523,81.0919 36.0795,63.0878 Z"
           fill="#ea7f3a" /><path
           id="Vector_7"
           d="m 15.9889,49.9797 c 0.1943,-1.0197 1.0955,-2.7002 1.2589,-3.7234 0.4244,-2.68 2.3282,-5.2844 3.8415,-7.3848 2.6171,-3.6293 6.4679,-5.4007 10.0359,-7.6915 1.08,-0.6917 2.0622,-1.7497 3.0499,-2.5874 1.028,-0.8714 2.1048,-1.5393 3.0775,-2.5262 0.9727,-0.9868 1.964,-2.0211 3.2503,-2.4714 1.7934,-0.6251 3.7351,-0.1277 5.5529,-0.6307 1.9476,-0.5399 3.9629,-0.9846 5.9763,-0.7175 3.0664,0.4058 5.7361,2.3969 8.5962,3.6767 1.3113,0.587 2.6755,1.025 3.9619,1.6661 2.0082,0.9993 3.4584,2.7663 5.0665,4.3678 1.9717,1.9652 4.8043,5.5752 6.7604,7.5539 L 36.3394,63.2832 Z"
           fill="#724c31" /><path
           id="Vector_8"
           d="M 99.1542,13.749 74.2776,28.9942 76.7694,30.739 100.53,16.2508 Z"
           fill="#bababa" /><path
           id="Vector_9"
           d="M 81.3205,2.26753 56.4439,17.5128 58.9357,19.2575 82.6961,4.76937 Z"
           fill="#bababa" /><path
           id="Vector_10"
           d="M 21.1808,63.9869 0.830505,81.8721 2.60003,84.084 23.6003,65.5582 Z"
           fill="#bababa" /><path
           id="Vector_11"
           d="m 10.4632,90.9438 c 5.7787,0 10.4632,-4.7503 10.4632,-10.6101 0,-5.8598 -4.6845,-10.6101 -10.4632,-10.6101 C 4.68454,69.7236 0,74.4739 0,80.3337 0,86.1935 4.68454,90.9438 10.4632,90.9438 Z"
           fill="#202d2b" /><path
           id="Vector_12"
           d="M 28.4489,68.7851 9.13684,80.1377 10.5124,82.6395 30.9408,70.3118 Z"
           fill="#bababa" /><rect
           id="Rectangle 67"
           width="14.043"
           height="3.8289499"
           rx="1"
           transform="matrix(0.85759,-0.514333,0.47768,0.878534,87.1516,20.5146)"
           fill="#202d2b"
           x="0"
           y="0" /><rect
           id="Rectangle 79"
           width="14.043"
           height="3.8289499"
           rx="1"
           transform="matrix(0.85759,-0.514333,0.47768,0.878534,72.1228,7.22266)"
           fill="#202d2b"
           x="0"
           y="0" /></g></g><g
       style="fill:none"
       id="g621"
       transform="matrix(0.26458333,0,0,0.26458333,-46.794864,-353.37042)"><g
         id="Garden Shed"><path
           id="Vector-4"
           d="M 140.259,55.9921 140.364,182.252 78.6629,220.971 77.9721,94.7259 Z"
           fill="#ece3db" /><path
           id="Vector_2-5"
           d="m 12.3387,57.9802 65.589,37.1424 0.68,125.8494 -65.5854,-36.86 z"
           fill="#fffbf8" /><path
           id="Vector_3-5"
           d="M 77.3031,95.3171 114.676,44.2642 140.428,56.0174"
           fill="#ece3db" /><path
           id="Vector_4-0"
           d="M 122.653,46.4171 81.2223,104.503 1.13134,56.0986 41.5164,1.40796"
           fill="#d35c4c" /><path
           id="Vector_5-6"
           d="m 120.286,47.9238 27.37,14.8024 1.404,-2.1815 -28.09,-15.1537 z"
           fill="#aa493c" /><path
           id="Rectangle 49"
           d="m 12.191,62.5205 1.2292,0.8381 0.4348,120.9744 -1.4517,0.003 z"
           fill="#ece3db" /><path
           id="Rectangle 54"
           d="m 23.8934,69.7075 1.2291,0.8381 0.4333,120.8494 -1.4632,-0.96 z"
           fill="#ece3db" /><path
           id="Rectangle 56"
           d="m 35.5947,76.8945 1.2291,0.8198 0.4303,118.3357 -1.4517,0.003 z"
           fill="#ece3db" /><path
           id="Rectangle 57"
           d="m 69.2367,97.4946 1.2291,0.82 0.4039,118.4234 -1.2186,-0.718 z"
           fill="#ece3db" /><path
           id="Rectangle 59"
           d="m 58.5073,90.7846 1.2291,0.8253 0.4317,119.1331 -1.4823,-0.941 z"
           fill="#ece3db" /><path
           id="Rectangle 58"
           d="m 47.2744,84.0811 1.2291,0.8236 0.4312,118.8993 -1.4516,0.002 z"
           fill="#ece3db" /><path
           id="Rectangle 60"
           d="m 87.1059,96.277 1.1331,-1.4499 0.4931,119.7999 -1.4183,0.952 z"
           fill="#d9d3cd" /><path
           id="Rectangle 61"
           d="m 96.3336,83.5386 1.1329,-1.5343 0.5866,126.8167 -1.4995,0.968 z"
           fill="#d9d3cd" /><path
           id="Rectangle 62"
           d="m 105.849,70.1384 1.132,-1.6238 0.674,134.3374 -1.574,0.911 z"
           fill="#d9d3cd" /><path
           id="Rectangle 63"
           d="m 115.362,56.6016 1.132,-1.7164 0.28,142.1948 -1.166,0.779 z"
           fill="#d9d3cd" /><path
           id="Rectangle 64"
           d="m 125.569,50.9979 -1.219,-0.8292 0.078,142.0603 1.401,-0.769 z"
           fill="#d9d3cd" /><path
           id="Rectangle 68"
           d="m 135.176,56.4329 -1.219,-0.7623 0.057,130.6164 1.401,-0.707 z"
           fill="#d9d3cd" /><path
           id="Vector_6-8"
           d="m 127.757,139.258 -28.4114,17.216 -0.3077,-45.043 15.2251,-9.022 12.962,-6.908 z"
           fill="#50603b" /><path
           id="Vector_7-5"
           d="m 25.8415,192.186 33.4151,19.39 -0.7097,-75.795 -32.9813,-18.542 z"
           fill="#50603b" /><path
           id="Vector_8-4"
           d="m 126.16,138.755 -24.479,13.675 -0.482,-39.621 13.323,-7.216 10.894,-6.4559 z"
           fill="#b8c9d5" /><path
           id="Vector_9-8"
           d="m 112.886,146.67 3.549,-2.201 -0.236,-40.4 -3.949,2.206 z"
           fill="#50603b" /><path
           id="Vector_10-9"
           d="m 125.947,121.164 -0.165,-4.365 -25.04,14.152 -0.061,4.628 z"
           fill="#50603b" /><path
           id="Vector_11-3"
           d="m 13.6765,181.727 11.6782,-50.733 c 0.1843,-0.8 -0.3147,-1.602 -1.1146,-1.79 -0.8,-0.188 -1.5979,0.309 -1.7823,1.11 l -11.6782,50.733 c -0.1843,0.801 0.3147,1.603 1.1147,1.79 0.7999,0.188 1.5979,-0.309 1.7822,-1.11 z"
           fill="#e1955e" /><path
           id="Vector_12-4"
           d="m 18.5951,184.673 c -0.3784,2.853 -0.526,5.732 -1.7716,8.368 -1.6641,3.518 -4.9034,5.995 -8.49556,7.116 -0.35092,0.109 -1.18848,-1.349 -1.35485,-1.6 -1.80725,-2.73 -2.50727,-6.054 -2.62065,-9.322 -0.07332,-2.08 -0.0091,-4.171 0.23156,-6.239 0.23173,-2.011 0.55069,-4.221 1.34453,-6.091"
           fill="#d9d9d9" /><path
           id="Vector_13"
           d="m 12.1858,180.633 c -0.6717,2.888 -1.2645,6.05 -2.40255,10.625 -0.89846,3.611 -1.10776,5.774 -1.54095,8.899 -0.35262,0.11 -1.08817,-1.208 -1.25532,-1.459 -1.81567,-2.717 -2.51869,-6.026 -2.63224,-9.279 -0.07344,-2.07 -0.00867,-4.152 0.23338,-6.21 0.23308,-2.003 0.45331,-4.441 1.2512,-6.303"
           fill="#bababa" /><ellipse
           id="Ellipse 32"
           cx="2.7827799"
           cy="2.8106999"
           rx="2.7827799"
           ry="2.8106999"
           transform="matrix(0.999923,-0.0124012,0.012156,0.999926,47.813,168.355)"
           fill="#ddae8a" /></g></g></g></svg>
