<svg width="36" height="36" viewBox="0 0 36 36" fill="none" xmlns="http://www.w3.org/2000/svg">
<g id="Property 1=left">
<path id="Vector" d="M22.52 6.48002L10.6 18L22.52 29.52C22.8449 29.833 23.2808 30.0041 23.7318 29.9956C24.1828 29.9872 24.612 29.7999 24.925 29.475C25.2379 29.1501 25.409 28.7142 25.4006 28.2632C25.3921 27.8122 25.2049 27.383 24.88 27.07L15.49 18L24.88 8.92002C25.2049 8.60706 25.3921 8.17787 25.4006 7.72684C25.409 7.27582 25.2379 6.83991 24.925 6.51502C24.612 6.19013 24.1828 6.00287 23.7318 5.99443C23.2808 5.98599 22.8449 6.15706 22.52 6.47002L22.52 6.48002Z" fill="black"/>
</g>
</svg>
