<svg width="36" height="36" viewBox="0 0 36 36" fill="none" xmlns="http://www.w3.org/2000/svg">
<g id="Property 1=down">
<path id="Vector" d="M6.47996 13.48L18 25.4L29.52 13.48C29.8329 13.1551 30.004 12.7192 29.9956 12.2682C29.9871 11.8172 29.7998 11.388 29.475 11.075C29.1501 10.7621 28.7142 10.591 28.2631 10.5994C27.8121 10.6079 27.3829 10.7951 27.07 11.12L18 20.51L8.91996 11.12C8.607 10.7951 8.1778 10.6079 7.72678 10.5994C7.27575 10.591 6.83985 10.7621 6.51496 11.075C6.19007 11.388 6.00281 11.8172 5.99437 12.2682C5.98593 12.7192 6.157 13.1551 6.46996 13.48L6.47996 13.48Z" fill="black"/>
</g>
</svg>
