<svg width="36" height="36" viewBox="0 0 36 36" fill="none" xmlns="http://www.w3.org/2000/svg">
<g id="Property 1=right">
<path id="Vector" d="M13.48 29.52L25.4 18L13.48 6.47998C13.1551 6.16702 12.7192 5.99595 12.2682 6.00439C11.8172 6.01283 11.388 6.20009 11.075 6.52498C10.7621 6.84987 10.591 7.28577 10.5994 7.7368C10.6079 8.18782 10.7951 8.61702 11.12 8.92998L20.51 18L11.12 27.08C10.7951 27.3929 10.6079 27.8221 10.5994 28.2732C10.591 28.7242 10.7621 29.1601 11.075 29.485C11.388 29.8099 11.8172 29.9971 12.2682 30.0056C12.7192 30.014 13.1551 29.8429 13.48 29.53L13.48 29.52Z" fill="black"/>
</g>
</svg>
