<svg xmlns="http://www.w3.org/2000/svg" width="18" height="18" viewBox="0 0 18 18" fill="none">
  <circle cx="9" cy="9" r="9" fill="#FFFBF8"/>
  <path d="M13.6374 5.03397L6.92371 11.9238L4.36261 9.2951C4.27532 9.2055 4.17134 9.13408 4.05643 9.08522L3.96299 9.30502L4.05643 9.08522C3.94151 9.03636 3.8181 9.01112 3.6933 9.01112C3.56851 9.01112 3.4451 9.03636 3.33017 9.08522C3.21526 9.13408 3.11128 9.2055 3.024 9.2951C2.93673 9.38467 2.86783 9.49067 2.82094 9.60686L3.05277 9.70042L2.82094 9.60686C2.77405 9.72304 2.75 9.84735 2.75 9.97274C2.75 10.0981 2.77405 10.2224 2.82094 10.3386L3.05214 10.2453L2.82094 10.3386C2.86783 10.4548 2.93672 10.5608 3.024 10.6504L6.25351 13.9652C6.25355 13.9652 6.25358 13.9653 6.25362 13.9653C6.34081 14.0551 6.44476 14.1267 6.55969 14.1757C6.67467 14.2247 6.7982 14.25 6.92311 14.25C7.04803 14.25 7.17155 14.2247 7.28654 14.1757C7.40144 14.1267 7.50536 14.0551 7.59253 13.9654C7.59259 13.9653 7.59266 13.9653 7.59272 13.9652L14.7957 6.57194L14.7969 6.57312L14.976 6.38926C15.1522 6.20846 15.25 5.96458 15.25 5.71162C15.25 5.45865 15.1522 5.21478 14.976 5.03397C14.7996 4.85294 14.559 4.75 14.3067 4.75C14.0544 4.75 13.8138 4.85293 13.6374 5.03396C13.6374 5.03396 13.6374 5.03397 13.6374 5.03397Z" fill="#202D2B" stroke="#202D2B" stroke-width="0.5"/>
</svg>