<svg width="20" height="20" viewBox="0 0 20 20" fill="none" xmlns="http://www.w3.org/2000/svg">
<g id="delivery">
<g id="Vector">
<path fill-rule="evenodd" clip-rule="evenodd" d="M15.075 2.12422C14.615 1.86589 14.125 1.84089 13.6075 1.90506C13.1158 1.96672 12.5166 2.12172 11.7975 2.30922L10.115 2.74589C9.39581 2.93339 8.79748 3.08839 8.33998 3.27422C7.85748 3.46922 7.44081 3.73089 7.17081 4.18506C6.89914 4.64172 6.87248 5.13006 6.93998 5.64006C7.00414 6.12089 7.16498 6.70422 7.35664 7.39922L7.80914 9.03589C8.00081 9.73172 8.16248 10.3142 8.35498 10.7609C8.55914 11.2359 8.83164 11.6401 9.29498 11.9001C9.75498 12.1576 10.245 12.1834 10.7633 12.1184C11.255 12.0576 11.8541 11.9017 12.5733 11.7142L14.2558 11.2776C14.975 11.0909 15.5733 10.9351 16.0308 10.7492C16.5133 10.5542 16.93 10.2926 17.2 9.83839C17.4716 9.38172 17.4983 8.89339 17.4308 8.38422C17.3666 7.90339 17.2058 7.31922 17.0141 6.62422L16.5616 4.98756C16.37 4.29256 16.2083 3.70922 16.0158 3.26256C15.8116 2.78756 15.5375 2.38339 15.075 2.12422ZM12.0708 3.52922C12.8416 3.32922 13.3608 3.19589 13.7625 3.14589C14.1466 3.09756 14.3308 3.14006 14.465 3.21506C14.5958 3.28839 14.7216 3.41589 14.8675 3.75672C15.0216 4.11506 15.1616 4.61422 15.3683 5.36256L15.7966 6.91506C16.0041 7.66339 16.1408 8.16339 16.1916 8.54839C16.24 8.91422 16.1966 9.08006 16.125 9.19922C16.0525 9.32172 15.9208 9.44589 15.5625 9.59089C15.1891 9.74172 14.6708 9.87839 13.9 10.0784L12.3 10.4942C11.5291 10.6942 11.01 10.8276 10.6083 10.8776C10.2233 10.9267 10.04 10.8842 9.90581 10.8092C9.77498 10.7359 9.64914 10.6076 9.50331 10.2676C9.34914 9.90922 9.20914 9.40922 9.00248 8.66089L8.57414 7.10922C8.36664 6.35922 8.22998 5.86006 8.17914 5.47589C8.13081 5.10922 8.17414 4.94422 8.24581 4.82422C8.31831 4.70172 8.44998 4.57756 8.80831 4.43256C9.18164 4.28172 9.69998 4.14589 10.4708 3.94506L12.0708 3.52922Z" fill="#9D9D9D"/>
<path fill-rule="evenodd" clip-rule="evenodd" d="M2.66664 3.93756C2.50877 3.89885 2.34202 3.92318 2.20178 4.00538C2.06154 4.08757 1.95884 4.22118 1.91548 4.37784C1.87211 4.5345 1.89148 4.7019 1.96949 4.84451C2.0475 4.98712 2.178 5.09373 2.33331 5.14172L3.75248 5.53589C4.10748 5.63422 4.37164 5.90256 4.46164 6.22839L6.08831 12.1142C6.02537 12.1267 5.96284 12.1411 5.90081 12.1576C4.25331 12.5851 3.24664 14.2426 3.69831 15.8801C4.14831 17.5092 5.85998 18.4484 7.50081 18.0217C8.93748 17.6492 9.88664 16.3417 9.80664 14.9284L16.8233 13.1051C16.9028 13.0844 16.9774 13.0484 17.0429 12.9989C17.1084 12.9494 17.1635 12.8875 17.2051 12.8168C17.2467 12.746 17.2739 12.6677 17.2853 12.5865C17.2966 12.5052 17.2919 12.4224 17.2712 12.343C17.2506 12.2635 17.2145 12.1889 17.1651 12.1234C17.1156 12.0579 17.0537 12.0028 16.983 11.9612C16.9122 11.9196 16.8339 11.8923 16.7526 11.881C16.6713 11.8696 16.5886 11.8744 16.5091 11.8951L9.47748 13.7226C9.26711 13.3206 8.97105 12.9697 8.6102 12.6946C8.24936 12.4196 7.83252 12.2272 7.38914 12.1309L5.66664 5.89506C5.56091 5.51993 5.3598 5.1786 5.0829 4.90433C4.806 4.63006 4.46276 4.43221 4.08664 4.33006L2.66748 3.93672L2.66664 3.93756ZM6.21581 13.3667C7.22581 13.1051 8.23914 13.6909 8.49914 14.6326C8.75748 15.5659 8.19081 16.5517 7.18748 16.8126C6.17748 17.0751 5.16414 16.4884 4.90414 15.5467C4.64581 14.6134 5.21248 13.6276 6.21581 13.3667Z" fill="#9D9D9D"/>
</g>
</g>
</svg>
