<svg xmlns="http://www.w3.org/2000/svg" width="16" height="14" viewBox="0 0 16 14" fill="none">
  <path d="M8 7.23506H10.3333C11.571 7.23506 12.758 6.80124 13.6332 6.02903C14.5083 5.25682 15 4.20948 15 3.11742V2.43114H12.6667C11.429 2.43114 10.242 2.86497 9.36684 3.63717C8.49167 4.40938 8 5.45672 8 6.54879H5.66667C4.42899 6.54879 3.242 6.11497 2.36684 5.34276C1.49167 4.57055 1 3.52321 1 2.43114V1.05859H3.33333C4.57101 1.05859 5.758 1.49242 6.63316 2.26462C7.50833 3.03683 8 4.08417 8 5.17624V9.29389M4.11111 9.29389H11.8889V12.039C11.8889 12.403 11.725 12.7521 11.4333 13.0095C11.1416 13.2669 10.7459 13.4115 10.3333 13.4115H5.66667C5.25411 13.4115 4.85845 13.2669 4.56672 13.0095C4.275 12.7521 4.11111 12.403 4.11111 12.039V9.29389Z" stroke="white" stroke-linecap="round" stroke-linejoin="round"/>
</svg>