<svg xmlns="http://www.w3.org/2000/svg" width="31" height="31" viewBox="0 0 31 31" fill="none">
  <path d="M16.9531 15.5001V20.3439C16.9531 20.7293 16.8 21.0989 16.5275 21.3714C16.255 21.6439 15.8854 21.797 15.5 21.797C15.1146 21.797 14.745 21.6439 14.4725 21.3714C14.2 21.0989 14.0469 20.7293 14.0469 20.3439V15.5001C14.0469 15.1147 14.2 14.7451 14.4725 14.4726C14.745 14.2001 15.1146 14.047 15.5 14.047C15.8854 14.047 16.255 14.2001 16.5275 14.4726C16.8 14.7451 16.9531 15.1147 16.9531 15.5001ZM29.5251 11.9448L27.8516 24.5385C27.7725 25.1207 27.4852 25.6544 27.0428 26.0409C26.6004 26.4274 26.0329 26.6405 25.4454 26.6407H5.55458C4.96737 26.6403 4.40018 26.4273 3.95787 26.0411C3.51555 25.6548 3.22803 25.1215 3.14844 24.5398L1.47008 11.946C1.4243 11.6035 1.45233 11.2552 1.55229 10.9245C1.65224 10.5937 1.82181 10.2882 2.0496 10.0284C2.2774 9.76862 2.55814 9.56057 2.87299 9.41825C3.18783 9.27592 3.52949 9.20261 3.87501 9.20324H8.0588L14.4102 1.94972C14.5466 1.79389 14.7147 1.669 14.9033 1.58344C15.0919 1.49788 15.2965 1.45361 15.5036 1.45361C15.7107 1.45361 15.9154 1.49788 16.104 1.58344C16.2926 1.669 16.4607 1.79389 16.5971 1.94972L22.9412 9.20324H27.125C27.4699 9.2035 27.8108 9.27742 28.1248 9.42005C28.4388 9.56268 28.7187 9.77074 28.9458 10.0303C29.173 10.2899 29.342 10.5949 29.4417 10.9251C29.5414 11.2553 29.5694 11.6029 29.5239 11.9448H29.5251ZM11.9217 9.20324H19.0795L15.5 5.11269L11.9217 9.20324ZM26.574 12.1095H4.42841L5.97841 23.7345H25.0216L26.574 12.1095ZM20.3534 15.356L19.8691 20.1998C19.8309 20.5832 19.9466 20.9661 20.1907 21.2643C20.4348 21.5625 20.7874 21.7515 21.1708 21.7897C21.2193 21.7897 21.2689 21.797 21.3174 21.797C21.6774 21.7964 22.0243 21.6621 22.291 21.4203C22.5577 21.1784 22.7251 20.8462 22.7608 20.488L23.2452 15.6442C23.2665 15.4531 23.2497 15.2597 23.1957 15.0751C23.1418 14.8906 23.0517 14.7186 22.9308 14.5691C22.8099 14.4196 22.6605 14.2956 22.4913 14.2042C22.3221 14.1129 22.1365 14.0561 21.9451 14.037C21.7538 14.0179 21.5606 14.037 21.3767 14.0932C21.1928 14.1493 21.0219 14.2414 20.8738 14.3641C20.7258 14.4868 20.6035 14.6376 20.5142 14.8079C20.4249 14.9782 20.3702 15.1645 20.3534 15.356ZM10.6514 15.356C10.609 14.976 10.4184 14.628 10.1211 14.3875C9.8238 14.147 9.44367 14.0334 9.06315 14.0713C8.68263 14.1092 8.3324 14.2956 8.0884 14.5901C7.8444 14.8845 7.72629 15.2633 7.7597 15.6442L8.24407 20.488C8.27977 20.8462 8.44718 21.1784 8.71386 21.4203C8.98054 21.6621 9.3275 21.7964 9.68751 21.797C9.73473 21.797 9.78438 21.797 9.83282 21.7897C10.2163 21.7515 10.5688 21.5625 10.813 21.2643C11.0571 20.9661 11.1728 20.5832 11.1346 20.1998L10.6514 15.356Z" fill="#FFFBF8"/>
</svg>