<svg width="24" height="24" viewBox="0 0 24 24" fill="none" xmlns="http://www.w3.org/2000/svg">
<g id="plus">
<path id="Vector" d="M19.8409 13.3636H13.3636V19.8409C13.3636 20.1845 13.2271 20.514 12.9842 20.7569C12.7413 20.9999 12.4118 21.1364 12.0682 21.1364C11.7246 21.1364 11.3951 20.9999 11.1522 20.7569C10.9092 20.514 10.7727 20.1845 10.7727 19.8409V13.3636H4.29545C3.95188 13.3636 3.62237 13.2272 3.37943 12.9842C3.13649 12.7413 3 12.4118 3 12.0682C3 11.7246 3.13649 11.3951 3.37943 11.1522C3.62237 10.9092 3.95188 10.7727 4.29545 10.7727H10.7727V4.29545C10.7727 3.95188 10.9092 3.62237 11.1522 3.37943C11.3951 3.13648 11.7246 3 12.0682 3C12.4118 3 12.7413 3.13648 12.9842 3.37943C13.2271 3.62237 13.3636 3.95188 13.3636 4.29545V10.7727H19.8409C20.1845 10.7727 20.514 10.9092 20.7569 11.1522C20.9999 11.3951 21.1364 11.7246 21.1364 12.0682C21.1364 12.4118 20.9999 12.7413 20.7569 12.9842C20.514 13.2272 20.1845 13.3636 19.8409 13.3636Z" fill="#202D2B"/>
</g>
</svg>
