<svg width="27" height="27" viewBox="0 0 27 27" fill="none" xmlns="http://www.w3.org/2000/svg">
<g id="Group 2263">
<circle id="Ellipse 24" cx="13.5" cy="13.5" r="13.5" fill="#202D2B"/>
<path id="Vector" d="M19.9483 14.2283C20.1415 14.0352 20.25 13.7732 20.25 13.5C20.25 13.2268 20.1415 12.9648 19.9483 12.7717C19.7552 12.5785 19.4932 12.47 19.22 12.47H14.53V7.78C14.53 7.50683 14.4215 7.24484 14.2283 7.05168C14.0352 6.85852 13.7732 6.75 13.5 6.75C13.2268 6.75 12.9648 6.85852 12.7717 7.05168C12.5785 7.24484 12.47 7.50683 12.47 7.78V12.47H7.78C7.50683 12.47 7.24484 12.5785 7.05168 12.7717C6.85852 12.9648 6.75 13.2268 6.75 13.5C6.75 13.7732 6.85852 14.0352 7.05168 14.2283C7.24484 14.4215 7.50683 14.53 7.78 14.53H12.47V19.22C12.47 19.4932 12.5785 19.7552 12.7717 19.9483C12.9648 20.1415 13.2268 20.25 13.5 20.25C13.7732 20.25 14.0352 20.1415 14.2283 19.9483C14.4215 19.7552 14.53 19.4932 14.53 19.22V14.53H19.22C19.4932 14.53 19.7552 14.4215 19.9483 14.2283Z" fill="#FFFBF8" stroke="#FFFBF8" stroke-width="0.5"/>
</g>
</svg>
