<svg xmlns="http://www.w3.org/2000/svg" fill="none" viewBox="2.5684144 2.5688904 28.9 28.9" style="max-height: 500px" width="28.9" height="28.9">
<g id="ph:x-circle-bold">
<path fill="#A44433" d="M22.3776 13.8776L19.2578 17L22.3816 20.1224C22.681 20.4218 22.8492 20.8279 22.8492 21.2513C22.8492 21.6747 22.681 22.0808 22.3816 22.3802C22.0822 22.6796 21.6761 22.8478 21.2527 22.8478C20.8292 22.8478 20.4232 22.6796 20.1238 22.3802L17 19.2578L13.8776 22.3816C13.5782 22.681 13.1721 22.8492 12.7487 22.8492C12.3253 22.8492 11.9192 22.681 11.6198 22.3816C11.3204 22.0822 11.1522 21.6761 11.1522 21.2527C11.1522 20.8292 11.3204 20.4232 11.6198 20.1238L14.7422 17L11.6224 13.8776C11.4742 13.7293 11.3566 13.5533 11.2763 13.3596C11.1961 13.1659 11.1548 12.9583 11.1548 12.7487C11.1548 12.3252 11.323 11.9192 11.6224 11.6198C11.9218 11.3204 12.3279 11.1522 12.7513 11.1522C13.1748 11.1522 13.5808 11.3204 13.8802 11.6198L17 14.7422L20.1224 11.6184C20.4218 11.319 20.8279 11.1508 21.2513 11.1508C21.6748 11.1508 22.0808 11.319 22.3802 11.6184C22.6796 11.9178 22.8478 12.3239 22.8478 12.7473C22.8478 13.1708 22.6796 13.5768 22.3802 13.8763L22.3776 13.8776ZM31.3438 17C31.3438 19.8369 30.5025 22.6101 28.9264 24.969C27.3503 27.3278 25.1101 29.1663 22.4891 30.2519C19.8681 31.3375 16.9841 31.6216 14.2017 31.0681C11.4193 30.5147 8.86345 29.1486 6.85744 27.1426C4.85143 25.1366 3.48532 22.5807 2.93187 19.7983C2.37841 17.0159 2.66246 14.1319 3.74811 11.5109C4.83375 8.88991 6.67223 6.64972 9.03105 5.07361C11.3899 3.4975 14.1631 2.65625 17 2.65625C20.8029 2.66047 24.4489 4.17304 27.1379 6.8621C29.827 9.55116 31.3395 13.1971 31.3438 17ZM28.1563 17C28.1563 14.7935 27.502 12.6366 26.2761 10.8019C25.0502 8.96728 23.3079 7.53736 21.2693 6.69297C19.2308 5.84858 16.9876 5.62765 14.8235 6.05811C12.6594 6.48858 10.6716 7.55111 9.11135 9.11134C7.55112 10.6716 6.48859 12.6594 6.05812 14.8235C5.62765 16.9876 5.84859 19.2308 6.69298 21.2693C7.53737 23.3078 8.96729 25.0502 10.8019 26.2761C12.6366 27.5019 14.7935 28.1562 17 28.1562C19.9579 28.1531 22.7937 26.9767 24.8852 24.8852C26.9767 22.7936 28.1531 19.9579 28.1563 17Z" id="Vector"/>
</g>
</svg>