<svg xmlns="http://www.w3.org/2000/svg" width="18" height="17" viewBox="0 0 18 17" fill="none">
  <path d="M6.85013 0.622052L0.485756 7.88841L7.32288 13.5392C7.32288 13.5392 7.58783 13.3915 7.75455 13.2919C7.94365 13.179 8.03668 13.0946 8.23246 12.993C8.44133 12.8846 8.55937 12.8134 8.79006 12.7614C8.99847 12.7144 9.12321 12.7097 9.3366 12.7246C9.59122 12.7424 9.73494 12.8175 9.97146 12.8758C10.208 12.9341 10.4376 12.9458 10.6919 12.8273C10.9097 12.7258 11.1364 12.4094 11.1364 12.4094C11.1364 12.4094 11.4268 12.2021 11.6443 12.1812C11.8799 12.1586 12.2294 12.3358 12.2294 12.3358C12.2294 12.3358 12.6099 12.4667 12.8643 12.487C13.1066 12.5063 13.4854 12.4451 13.4854 12.4451L16.7059 8.76805L6.85013 0.622052Z" stroke="white" stroke-width="0.75" stroke-linejoin="round"/>
  <path d="M8.19793 7.63434L7.59149 8.24254C7.26981 8.56516 7.11083 8.98409 7.14951 9.40718C7.18819 9.83027 7.42137 10.2229 7.79775 10.4986L8.03428 10.6718L8.64072 10.0636C8.9624 9.74103 9.12139 9.3221 9.0827 8.89901C9.04402 8.47592 8.81084 8.08333 8.43446 7.80761L9.0409 7.1994C9.36258 6.87678 9.8206 6.67691 10.3142 6.64376C10.8078 6.6106 11.2966 6.74688 11.6729 7.0226L12.146 7.36914L11.5396 7.97735C11.2179 8.29996 10.7599 8.49983 10.2662 8.53299C9.77265 8.56614 9.28389 8.42987 8.90751 8.15415L7.48836 7.11453M8.4991 6.10084L6.47762 8.12821L5.53152 7.43513C5.40606 7.34322 5.32833 7.21235 5.31543 7.07132C5.30254 6.93029 5.35554 6.79065 5.46276 6.68311L6.67565 5.4667C6.78288 5.35916 6.93555 5.29254 7.10009 5.28148C7.26462 5.27043 7.42754 5.31586 7.553 5.40777L8.4991 6.10084Z" stroke="white" stroke-width="0.75" stroke-linecap="round" stroke-linejoin="round"/>
  <mask id="path-3-inside-1_1702_2286" fill="white">
    <ellipse cx="0.362878" cy="0.697249" rx="0.362878" ry="0.697249" transform="matrix(0.0341785 0.999416 -0.99948 0.0322554 12.3599 13.9058)"/>
  </mask>
  <path d="M11.6621 13.904C11.5651 13.9072 11.5137 13.8867 11.5147 13.8872C11.5158 13.8877 11.5557 13.9062 11.6036 13.9613C11.6557 14.0211 11.7228 14.1334 11.7281 14.2892L10.2289 14.3376C10.2467 14.8589 10.6477 15.1337 10.868 15.2393C11.1258 15.3629 11.4256 15.4124 11.7134 15.4031L11.6621 13.904ZM11.7281 14.2892C11.7334 14.4451 11.6742 14.5614 11.6263 14.6244C11.5823 14.6825 11.5437 14.7035 11.5426 14.7041C11.5417 14.7047 11.5916 14.6809 11.6886 14.6778L11.6373 13.1787C11.3495 13.188 11.0537 13.2567 10.805 13.3966C10.5924 13.5163 10.2111 13.8163 10.2289 14.3376L11.7281 14.2892ZM11.6886 14.6778C11.7856 14.6747 11.8371 14.6951 11.8361 14.6946C11.835 14.6941 11.795 14.6756 11.7471 14.6205C11.6951 14.5607 11.628 14.4485 11.6227 14.2926L13.1219 14.2442C13.104 13.723 12.703 13.4482 12.4827 13.3425C12.225 13.2189 11.9252 13.1694 11.6373 13.1787L11.6886 14.6778ZM11.6227 14.2926C11.6173 14.1368 11.6766 14.0205 11.7244 13.9574C11.7685 13.8993 11.8071 13.8783 11.8081 13.8777C11.8091 13.8772 11.7592 13.9009 11.6621 13.904L11.7134 15.4031C12.0013 15.3939 12.297 15.3251 12.5457 15.1852C12.7584 15.0656 13.1397 14.7655 13.1219 14.2442L11.6227 14.2926Z" fill="white" mask="url(#path-3-inside-1_1702_2286)"/>
  <mask id="path-5-inside-2_1702_2286" fill="white">
    <ellipse cx="0.371165" cy="0.681879" rx="0.371165" ry="0.681879" transform="matrix(0.886064 0.463564 -0.48487 0.874586 9.08691 13.7158)"/>
  </mask>
  <path d="M8.7495 14.3086C8.70694 14.3854 8.66783 14.4127 8.67411 14.4086C8.67809 14.4061 8.71606 14.3817 8.78794 14.3694C8.86586 14.3561 8.98967 14.3574 9.1182 14.4247L8.39089 15.7365C8.83961 15.9713 9.27655 15.7863 9.49375 15.6466C9.73872 15.489 9.93855 15.2566 10.0786 15.004L8.7495 14.3086ZM9.1182 14.4247C9.24673 14.4919 9.31599 14.5916 9.34742 14.6621C9.37641 14.7272 9.37638 14.7714 9.37637 14.776C9.37635 14.7834 9.37828 14.7366 9.42084 14.6599L8.09174 13.9645C7.95171 14.2171 7.86194 14.5071 7.86129 14.7925C7.86072 15.0456 7.94218 15.5018 8.39089 15.7365L9.1182 14.4247ZM9.42084 14.6599C9.4634 14.5831 9.5025 14.5558 9.49622 14.5598C9.49224 14.5624 9.45428 14.5868 9.38239 14.599C9.30447 14.6124 9.18067 14.6111 9.05214 14.5438L9.77944 13.2319C9.33073 12.9972 8.89379 13.1822 8.67658 13.3219C8.43161 13.4795 8.23178 13.7119 8.09174 13.9645L9.42084 14.6599ZM9.05214 14.5438C8.92361 14.4766 8.85434 14.3769 8.82292 14.3063C8.79393 14.2413 8.79395 14.1971 8.79397 14.1924C8.79398 14.1851 8.79206 14.2319 8.7495 14.3086L10.0786 15.004C10.2186 14.7514 10.3084 14.4614 10.309 14.176C10.3096 13.9229 10.2282 13.4667 9.77944 13.2319L9.05214 14.5438Z" fill="white" mask="url(#path-5-inside-2_1702_2286)"/>
  <mask id="path-7-inside-3_1702_2286" fill="white">
    <ellipse cx="10.3296" cy="16.3229" rx="0.373538" ry="0.677349"/>
  </mask>
  <path d="M9.95313 16.3229C9.95313 16.4079 9.93252 16.4477 9.93697 16.4396C9.93972 16.4346 9.96159 16.3955 10.0186 16.3519C10.0802 16.3045 10.1876 16.2502 10.3296 16.2502V17.7502C10.8316 17.7502 11.1255 17.3906 11.2505 17.164C11.3901 16.9108 11.4531 16.6119 11.4531 16.3229H9.95313ZM10.3296 16.2502C10.4716 16.2502 10.5789 16.3045 10.6406 16.3519C10.6976 16.3955 10.7195 16.4346 10.7222 16.4396C10.7267 16.4477 10.7061 16.4079 10.7061 16.3229H9.20605C9.20605 16.6119 9.26906 16.9108 9.40871 17.164C9.5337 17.3906 9.82755 17.7502 10.3296 17.7502V16.2502ZM10.7061 16.3229C10.7061 16.2379 10.7267 16.198 10.7222 16.2061C10.7195 16.2111 10.6976 16.2502 10.6406 16.2939C10.5789 16.3412 10.4716 16.3955 10.3296 16.3955V14.8955C9.82755 14.8955 9.5337 15.2551 9.40871 15.4817C9.26906 15.7349 9.20605 16.0338 9.20605 16.3229H10.7061ZM10.3296 16.3955C10.1876 16.3955 10.0802 16.3412 10.0186 16.2939C9.96159 16.2502 9.93972 16.2111 9.93697 16.2061C9.93252 16.198 9.95313 16.2379 9.95313 16.3229H11.4531C11.4531 16.0338 11.3901 15.7349 11.2505 15.4817C11.1255 15.2551 10.8316 14.8955 10.3296 14.8955V16.3955Z" fill="white" mask="url(#path-7-inside-3_1702_2286)"/>
</svg>